HIERARCHY
ROOT Hips
{
    OFFSET 0.000000 0.000000 0.000000
    CHANNELS 6 Xposition Yposition Zposition Zrotation Xrotation Yrotation
    JOINT Spine
    {
        OFFSET -0.000000 7.675621 0.000000
        CHANNELS 3 Zrotation Xrotation Yrotation
        JOINT Spine1
        {
            OFFSET -0.000000 18.989058 0.000000
            CHANNELS 3 Zrotation Xrotation Yrotation
            JOINT Neck
            {
                OFFSET -0.000000 20.861160 0.000000
                CHANNELS 3 Zrotation Xrotation Yrotation
                JOINT Head
                {
                    OFFSET -0.000000 14.508796 1.872102
                    CHANNELS 3 Zrotation Xrotation Yrotation
                    End Site
                    {
                        OFFSET -0.000000 18.721025 0.000000
                    }
                }
            }
            JOINT LeftShoulder
            {
                OFFSET 3.803890 16.435163 -0.376809
                CHANNELS 3 Zrotation Xrotation Yrotation
                JOINT LeftArm
                {
                    OFFSET 13.491586 0.000000 0.000000
                    CHANNELS 3 Zrotation Xrotation Yrotation
                    JOINT LeftForeArm
                    {
                        OFFSET 26.595486 0.000000 0.000000
                        CHANNELS 3 Zrotation Xrotation Yrotation
                        JOINT LeftHand
                        {
                            OFFSET 27.333027 0.000000 0.000000
                            CHANNELS 3 Zrotation Xrotation Yrotation
                            End Site
                            {
                                OFFSET 14.040770 0.000000 0.000000
                            }
                        }
                    }
                }
            }
            JOINT RightShoulder
            {
                OFFSET -3.655588 16.435163 -0.376809
                CHANNELS 3 Zrotation Xrotation Yrotation
                JOINT RightArm
                {
                    OFFSET -13.491586 0.000000 0.000000
                    CHANNELS 3 Zrotation Xrotation Yrotation
                    JOINT RightForeArm
                    {
                        OFFSET -26.595486 0.000000 0.000000
                        CHANNELS 3 Zrotation Xrotation Yrotation
                        JOINT RightHand
                        {
                            OFFSET -27.333027 0.000000 0.000000
                            CHANNELS 3 Zrotation Xrotation Yrotation
                            End Site
                            {
                                OFFSET -14.040770 0.000000 0.000000
                            }
                        }
                    }
                }
            }
        }
    }
    JOINT LeftUpLeg
    {
        OFFSET 9.360513 0.000000 0.000000
        CHANNELS 3 Zrotation Xrotation Yrotation
        JOINT LeftLeg
        {
            OFFSET -0.000000 -38.119110 0.000000
            CHANNELS 3 Zrotation Xrotation Yrotation
            JOINT LeftFoot
            {
                OFFSET -0.000000 -45.088081 0.000000
                CHANNELS 3 Zrotation Xrotation Yrotation
                JOINT LeftToeBase
                {
                    OFFSET -0.000000 -6.084333 14.040770
                    CHANNELS 3 Zrotation Xrotation Yrotation
                    End Site
                    {
                        OFFSET -0.000000 0.000000 3.744205
                    }
                }
            }
        }
    }
    JOINT RightUpLeg
    {
        OFFSET -9.360513 0.000000 0.000000
        CHANNELS 3 Zrotation Xrotation Yrotation
        JOINT RightLeg
        {
            OFFSET -0.000000 -38.119110 0.000000
            CHANNELS 3 Zrotation Xrotation Yrotation
            JOINT RightFoot
            {
                OFFSET -0.000000 -45.088081 0.000000
                CHANNELS 3 Zrotation Xrotation Yrotation
                JOINT RightToeBase
                {
                    OFFSET -0.000000 -6.084333 14.040770
                    CHANNELS 3 Zrotation Xrotation Yrotation
                    End Site
                    {
                        OFFSET -0.000000 0.000000 3.744205
                    }
                }
            }
        }
    }
}
MOTION
Frames:    14
Frame Time:    0.008333
218.131165    88.139542    3.722022    0.260193    -0.261757    -95.031952    -1.345637    -6.179462    3.688683    1.613301    -2.563385    1.286654    0.620968    10.790482    11.034366    -1.144859    -4.656388    11.641774    16.956640    -0.501976    -5.737765    -20.444420    2.968669    0.119715    -1.580504    -7.302203    -1.296636    -7.011941    -7.330466    0.173016    -16.651709    0.262848    -3.194916    21.422028    -5.804976    5.166170    1.842523    -0.401737    -4.838456    4.666217    -0.339027    -0.367437    1.063442    4.912848    -7.235711    -1.901236    0.883618    0.793013    10.671616    -4.197712    14.744481    0.000000    0.000000    0.000000    -5.964192    0.040042    7.061941    8.880933    7.507842    2.753809    -2.700633    -8.111708    -11.704589    0.000000    0.000000    0.000000    
218.126984    88.137123    3.720043    0.260196    -0.265281    -95.019089    -1.342150    -6.185760    3.679973    1.601958    -2.564961    1.283418    0.602669    10.765951    11.054476    -1.079043    -4.629650    11.652797    16.957979    -0.491992    -5.735484    -20.438677    2.953296    0.105939    -1.575397    -7.281342    -1.286535    -7.009255    -7.310056    0.183767    -16.657282    0.267449    -3.191219    21.428019    -5.812635    5.174220    1.838462    -0.387857    -4.840394    4.681806    -0.324744    -0.357158    1.067898    4.916002    -7.268406    -1.909963    0.878676    0.793459    10.693869    -4.189825    14.765886    0.000000    0.000000    0.000000    -5.964368    0.036404    7.013378    8.877323    7.529845    2.744795    -2.673304    -8.145187    -11.669476    0.000000    0.000000    0.000000    
218.120819    88.135399    3.716179    0.256658    -0.264602    -95.005066    -1.340591    -6.195891    3.668897    1.601347    -2.554328    1.279589    0.598403    10.772943    11.052735    -1.076897    -4.639968    11.649780    16.952087    -0.488222    -5.733234    -20.430752    2.963470    0.104860    -1.571192    -7.273704    -1.295916    -7.020073    -7.303212    0.195370    -16.652534    0.271931    -3.191847    21.416838    -5.797241    5.181417    1.834058    -0.383972    -4.827259    4.728024    -0.322300    -0.374053    1.073076    4.922035    -7.274499    -1.911306    0.880510    0.764276    10.657634    -4.198379    14.774321    0.000000    0.000000    0.000000    -5.960835    0.047287    7.001871    8.875584    7.529859    2.752561    -2.700504    -8.140860    -11.686228    0.000000    0.000000    0.000000    
218.115707    88.135948    3.710629    0.253162    -0.264221    -94.997826    -1.340932    -6.204549    3.660935    1.602874    -2.543790    1.276836    0.567291    10.782022    11.062619    -1.031943    -4.666789    11.648827    16.943851    -0.486242    -5.725093    -20.116272    2.338039    0.053795    -2.166584    -6.941075    -1.219733    -6.745330    -6.974386    0.177752    -16.664619    0.268895    -3.191083    21.429462    -5.816243    5.197990    1.833130    -0.364794    -4.835783    4.772728    -0.303799    -0.389034    1.075471    4.929820    -7.313048    -1.909488    0.877860    0.799472    10.647640    -4.195910    14.763281    0.000000    0.000000    0.000000    -5.957622    0.051927    7.003633    8.873984    7.536768    2.744632    -2.678122    -8.136957    -11.667962    0.000000    0.000000    0.000000    
218.110733    88.136032    3.707381    0.250554    -0.268898    -94.986710    -1.344535    -6.217311    3.654815    1.601902    -2.528062    1.274678    0.574948    10.782427    11.059463    -1.043990    -4.665130    11.648367    16.939074    -0.490927    -5.732338    -20.419847    3.012714    0.109778    -1.565577    -7.274015    -1.320361    -7.038690    -7.306233    0.234756    -16.665865    0.274477    -3.193633    21.427193    -5.808187    5.201735    1.836803    -0.363869    -4.821741    4.792283    -0.303546    -0.403305    1.060750    4.929604    -7.266485    -1.892113    0.887452    0.793826    10.668318    -4.206598    14.734578    0.000000    0.000000    0.000000    -5.959711    0.058764    7.006820    8.868454    7.537540    2.725883    -2.717785    -8.146420    -11.652689    0.000000    0.000000    0.000000    
218.104935    88.135567    3.704781    0.252511    -0.269550    -94.975433    -1.345923    -6.239187    3.651171    1.602289    -2.506178    1.273286    0.554097    10.802706    11.058003    -1.014641    -4.710513    11.639297    16.973373    -0.557718    -5.737075    -20.479359    3.035732    0.113837    -1.543707    -7.253282    -1.297355    -7.015883    -7.285484    0.244267    -16.666090    0.271502    -3.203825    21.426834    -5.794751    5.208461    1.833888    -0.357008    -4.811208    4.829308    -0.297802    -0.420611    1.067345    4.925882    -7.283307    -1.897771    0.894501    0.759605    10.668758    -4.204723    14.765905    0.000000    0.000000    0.000000    -5.960152    0.055662    7.032272    8.879938    7.546381    2.762269    -2.721965    -8.150041    -11.727660    0.000000    0.000000    0.000000    
218.098785    88.135460    3.701948    0.247222    -0.269712    -94.967712    -1.344172    -6.250372    3.645389    1.595216    -2.488694    1.270984    0.585189    10.801414    11.058284    -1.051736    -4.703937    11.649915    16.945257    -0.499302    -5.733122    -20.420155    3.003577    0.094129    -1.570885    -7.256010    -1.317059    -6.976168    -7.290112    0.267730    -16.657175    0.276152    -3.207646    21.421640    -5.803186    5.220519    1.838751    -0.347714    -4.806336    4.837081    -0.288461    -0.424960    1.065847    4.936583    -7.275600    -1.887188    0.891675    0.757181    10.648951    -4.212636    14.741879    0.000000    0.000000    0.000000    -5.950818    0.063976    6.994990    8.862073    7.555922    2.726173    -2.652981    -8.171587    -11.655676    0.000000    0.000000    0.000000    
218.093018    88.132935    3.698970    0.249807    -0.264827    -94.966904    -1.332638    -6.269088    3.641270    1.586594    -2.469017    1.268997    0.653424    10.786662    11.049839    -1.153188    -4.667629    11.665727    16.950815    -0.496164    -5.721804    -20.421724    2.995169    0.085239    -1.566618    -7.253595    -1.321524    -6.952090    -7.288785    0.286497    -16.662077    0.280234    -3.207312    21.433325    -5.805185    5.233428    1.836545    -0.338367    -4.802237    4.863850    -0.280238    -0.444209    1.072691    4.939745    -7.270861    -1.891853    0.887433    0.766090    10.702530    -4.219243    14.756081    0.000000    0.000000    0.000000    -5.914487    0.054611    6.946659    8.806938    7.591066    2.665590    -2.670764    -8.194549    -11.550999    0.000000    0.000000    0.000000    
218.086105    88.130905    3.697319    0.251279    -0.268135    -94.962708    -1.335127    -6.292701    3.640965    1.579708    -2.440534    1.268497    0.682344    10.785902    11.050126    -1.186159    -4.680439    11.675334    16.964338    -0.488594    -5.715924    -20.432205    2.996863    0.076261    -1.562971    -7.244047    -1.341082    -6.915457    -7.281713    0.325821    -16.645990    0.280019    -3.215870    21.424789    -5.792558    5.237419    1.838457    -0.337312    -4.790058    4.866426    -0.279594    -0.445554    1.068615    4.950780    -7.279908    -1.884413    0.872952    0.842559    10.661659    -4.232689    14.681033    0.000000    0.000000    0.000000    -5.945091    0.072303    6.999629    8.863585    7.554116    2.769139    -2.737974    -8.176682    -11.720363    0.000000    0.000000    0.000000    
218.082977    88.129112    3.695470    0.267978    -0.272501    -94.952827    -1.339243    -6.325439    3.634120    1.579985    -2.413917    1.266065    0.710981    10.797700    11.040975    -1.242110    -4.722203    11.676860    16.974539    -0.483844    -5.709113    -20.444904    2.967771    0.061868    -1.551500    -7.225074    -1.335986    -6.896894    -7.262544    0.326522    -16.643509    0.285053    -3.224768    21.426003    -5.777661    5.241408    1.833549    -0.341620    -4.769743    4.882818    -0.284399    -0.451185    1.069661    4.935698    -7.315452    -1.887934    0.871534    0.834558    10.669562    -4.226959    14.707250    0.000000    0.000000    0.000000    -5.918696    0.047682    6.933362    8.809478    7.587896    2.682145    -2.682527    -8.208521    -11.578351    0.000000    0.000000    0.000000    
218.077301    88.129433    3.693125    0.275596    -0.278069    -94.951462    -1.343353    -6.355477    3.631551    1.587299    -2.375297    1.265011    0.658709    10.803666    11.058114    -1.193447    -4.786567    11.677862    16.960636    -0.482313    -5.693094    -20.443897    2.994595    0.056299    -1.535565    -7.214149    -1.357403    -6.864374    -7.253337    0.355288    -16.651720    0.296513    -3.234809    21.438175    -5.777987    5.256234    1.825217    -0.342925    -4.757609    4.890754    -0.286456    -0.455801    1.071306    4.935165    -7.331799    -1.896000    0.865061    0.804415    10.696938    -4.225327    14.747488    0.000000    0.000000    0.000000    -5.951680    0.057542    6.978984    8.864032    7.549603    2.767649    -2.701739    -8.170714    -11.714170    0.000000    0.000000    0.000000    
218.069321    88.129356    3.690851    0.278325    -0.283804    -94.953224    -1.346492    -6.387806    3.638698    1.588443    -2.326027    1.266882    0.644665    10.804678    11.061898    -1.183541    -4.846112    11.677136    16.959240    -0.490862    -5.692384    -20.453327    3.021768    0.058382    -1.518710    -7.206797    -1.375277    -6.837848    -7.247378    0.379554    -16.650614    0.304577    -3.254718    21.443396    -5.767372    5.266593    1.819913    -0.349363    -4.744414    4.886608    -0.293642    -0.456939    1.068617    4.937382    -7.337660    -1.902148    0.863200    0.805717    10.725518    -4.209381    14.762657    0.000000    0.000000    0.000000    -5.954779    0.062024    6.957923    8.854292    7.547871    2.732858    -2.732858    -8.179968    -11.649277    0.000000    0.000000    0.000000    
218.063568    88.129311    3.687531    0.284799    -0.287537    -94.949913    -1.352083    -6.418947    3.638599    1.593976    -2.280644    1.266592    0.666612    10.814500    11.059537    -1.249407    -4.908319    11.684680    16.949585    -0.487146    -5.686664    -20.444292    3.047084    0.053980    -1.513453    -7.196414    -1.389788    -6.831332    -7.237532    0.386854    -16.644655    0.320827    -3.262970    21.441198    -5.758984    5.269038    1.819531    -0.356854    -4.729376    4.877142    -0.301855    -0.467708    1.063689    4.934179    -7.339270    -1.891224    0.862612    0.835869    10.649827    -4.226996    14.705581    0.000000    0.000000    0.000000    -5.959742    0.065816    6.952535    8.858372    7.537292    2.711235    -2.729740    -8.188161    -11.617656    0.000000    0.000000    0.000000    
218.057434    88.128944    3.685076    0.284041    -0.290247    -94.948883    -1.353158    -6.439259    3.635144    1.594691    -2.243728    1.265030    0.660885    10.802478    11.075581    -1.252218    -4.932923    11.699856    16.945255    -0.488303    -5.685611    -20.443758    3.072775    0.066238    -1.507132    -7.187685    -1.402193    -6.807560    -7.229507    0.398613    -16.647961    0.319992    -3.254544    21.454981    -5.759298    5.259455    1.813305    -0.349143    -4.725373    4.866675    -0.294047    -0.459675    1.060718    4.939412    -7.339264    -1.892282    0.862269    0.824766    10.643063    -4.211701    14.730229    0.000000    0.000000    0.000000    -5.927299    0.064331    6.869953    8.786664    7.567715    2.698133    -2.707896    -8.200704    -11.523832    0.000000    0.000000    0.000000    
